<svg xmlns="http://www.w3.org/2000/svg"  viewBox="0 0 64 64" width="64px" height="64px"><linearGradient id="21JT6e3QGlLjikT4NXEe9a" x1="32" x2="32" y1="35.848" y2="14.977" gradientTransform="matrix(1 0 0 -1 0 65.276)" gradientUnits="userSpaceOnUse"><stop offset="0" stop-color="#6dc7ff"/><stop offset="1" stop-color="#e6abff"/></linearGradient><path fill="url(#21JT6e3QGlLjikT4NXEe9a)" d="M63,29.428l-31,16l-31-16v4.87l31,16.001l31-16.001V29.428z"/><linearGradient id="21JT6e3QGlLjikT4NXEe9b" x1="32" x2="32" y1="36.848" y2="13.978" gradientTransform="matrix(1 0 0 -1 0 65.276)" gradientUnits="userSpaceOnUse"><stop offset="0" stop-color="#1a6dff"/><stop offset="1" stop-color="#c822ff"/></linearGradient><path fill="url(#21JT6e3QGlLjikT4NXEe9b)" d="M32,51.298 c-0.157,0-0.314-0.037-0.459-0.111l-31-16.001C0.209,35.014,0,34.671,0,34.297v-4.869c0-0.349,0.182-0.673,0.479-0.854 c0.297-0.182,0.668-0.194,0.979-0.034L32,44.304l30.541-15.765c0.31-0.16,0.682-0.147,0.979,0.034S64,29.079,64,29.428v4.869 c0,0.374-0.209,0.717-0.541,0.889l-31,16.001C32.314,51.261,32.157,51.298,32,51.298z M2,33.688l30,15.485l30-15.485V31.07 L32.459,46.317c-0.289,0.148-0.629,0.148-0.918,0L2,31.069V33.688z"/><linearGradient id="21JT6e3QGlLjikT4NXEe9c" x1="32.83" x2="32.83" y1="53.079" y2="28.516" gradientTransform="matrix(1 0 0 -1 0 65.276)" gradientUnits="userSpaceOnUse"><stop offset="0" stop-color="#6dc7ff"/><stop offset="1" stop-color="#e6abff"/></linearGradient><path fill="url(#21JT6e3QGlLjikT4NXEe9c)" d="M29.761,16.463	c-8.87,0-16.704,4.348-21.553,11.009c4.565-9.052,13.921-15.275,24.753-15.275c10.616,0,19.83,5.97,24.491,14.733l-4.881,2.44	C47.9,21.645,39.447,16.464,29.761,16.463z M44.763,33.005l4.893-2.447c-3.257-5.966-9.586-10.013-16.861-10.013	c-7.912,0-14.702,4.789-17.642,11.624c3.292-4.456,8.555-7.357,14.507-7.357C35.98,24.812,41.534,28.073,44.763,33.005z M37.161,36.76l4.904-2.453c-1.837-3.187-5.233-5.415-9.166-5.415c-4.685,0-8.618,3.121-10.031,7.345	c1.743-1.85,4.195-3.019,6.931-3.019C32.78,33.217,35.408,34.615,37.161,36.76z"/></svg>